HIERARCHY
ROOT Hips
{
    OFFSET 0.0 0.0 0.0
    CHANNELS 6 Xposition Yposition Zposition Zrotation Xrotation Yrotation
    JOINT LeftUpLeg
    {
        OFFSET 15.397945365843036 0.0 0.0
        CHANNELS 3 Zrotation Xrotation Yrotation
        JOINT LeftLeg
        {
            OFFSET 0.0 0.0 -60.52963658705719
            CHANNELS 3 Zrotation Xrotation Yrotation
            JOINT LeftFoot
            {
                OFFSET 0.0 0.0 -44.658139277884786
                CHANNELS 3 Zrotation Xrotation Yrotation
                JOINT LeftToeBase
                {
                    OFFSET 0.0 -12.875466382995903 0.0
                    CHANNELS 3 Zrotation Xrotation Yrotation
                    End Site
                    {
                        OFFSET 0 0 0
                    }
                }
            }
        }
    }
    JOINT RightUpLeg
    {
        OFFSET -15.397945365843036 0.0 0.0
        CHANNELS 3 Zrotation Xrotation Yrotation
        JOINT RightLeg
        {
            OFFSET 0.0 0.0 -60.52963658705719
            CHANNELS 3 Zrotation Xrotation Yrotation
            JOINT RightFoot
            {
                OFFSET 0.0 0.0 -44.658139277884786
                CHANNELS 3 Zrotation Xrotation Yrotation
                JOINT RightToeBase
                {
                    OFFSET 0.0 -12.875466382995903 0.0
                    CHANNELS 3 Zrotation Xrotation Yrotation
                    End Site
                    {
                        OFFSET 0 0 0
                    }
                }
            }
        }
    }
    JOINT Spine
    {
        OFFSET 0.0 0.0 11.688376580070827
        CHANNELS 3 Zrotation Xrotation Yrotation
        JOINT Spine1
        {
            OFFSET 0.0 0.0 11.45785012606359
            CHANNELS 3 Zrotation Xrotation Yrotation
            JOINT Spine2
            {
                OFFSET 0.0 0.0 11.457850126063592
                CHANNELS 3 Zrotation Xrotation Yrotation
                JOINT Spine3
                {
                    OFFSET 0.0 0.0 11.457850126063587
                    CHANNELS 3 Zrotation Xrotation Yrotation
                    JOINT Spine4
                    {
                        OFFSET 0.0 0.0 11.457850126063596
                        CHANNELS 3 Zrotation Xrotation Yrotation
                        JOINT RightShoulder
                        {
                            OFFSET -25.65560048422242 0.0 0.0
                            CHANNELS 3 Zrotation Xrotation Yrotation
                            JOINT RightArm
                            {
                                OFFSET -32.00915478843832 0.0 0.0
                                CHANNELS 3 Zrotation Xrotation Yrotation
                                JOINT RightForeArm
                                {
                                    OFFSET -33.796636522857746 0.0 0.0
                                    CHANNELS 3 Zrotation Xrotation Yrotation
                                    JOINT RightHand
                                    {
                                        OFFSET -12.604413318417523 0.0 0.0
                                        CHANNELS 3 Zrotation Xrotation Yrotation
                                        End Site
                                        {
                                            OFFSET 0 0 0
                                        }
                                    }
                                }
                            }
                        }
                        JOINT LeftShoulder
                        {
                            OFFSET 25.65560048422242 0.0 0.0
                            CHANNELS 3 Zrotation Xrotation Yrotation
                            JOINT LeftArm
                            {
                                OFFSET 32.00915478843832 0.0 0.0
                                CHANNELS 3 Zrotation Xrotation Yrotation
                                JOINT LeftForeArm
                                {
                                    OFFSET 33.796636522857746 0.0 0.0
                                    CHANNELS 3 Zrotation Xrotation Yrotation
                                    JOINT LeftHand
                                    {
                                        OFFSET 12.604413318417523 0.0 0.0
                                        CHANNELS 3 Zrotation Xrotation Yrotation
                                        End Site
                                        {
                                            OFFSET 0 0 0
                                        }
                                    }
                                }
                            }
                        }
                        JOINT Neck
                        {
                            OFFSET 0.0 0.0 11.457850149105308
                            CHANNELS 3 Zrotation Xrotation Yrotation
                            JOINT Head
                            {
                                OFFSET 0.0 0.0 26.615242511278918
                                CHANNELS 3 Zrotation Xrotation Yrotation
                                End Site
                                {
                                    OFFSET 0 0 0
                                }
                            }
                        }
                    }
                }
            }
        }
    }
}
MOTION
Frames: 7
Frame Time: 0.03333333333333333
38.15694741010666 -5.296100315451622 451.69305953979494 17.706111953273624 -61.205771477617155 18.335760251488665 -4.236629070350797 -17.809853483858262 -6.982852342521957 149.57536242121355 -21.518588838268016 78.27449719127881 -105.08836903917323 0.0 109.0036269851653 0.0 0.0 0.0 6.478188964523533 -17.09471032486945 22.596901253613716 -27.116084561254386 -12.535627344095378 -37.97130488227788 104.69500091094525 -9.54166404439055e-15 -79.01075799486922 0.0 0.0 0.0 1.495265227739879 -29.4133734035822 1.7315838531181267 0.0 0.0 0.0 0.0 0.0 0.0 0.0 0.0 0.0 0.0 0.0 0.0 90.21250131011051 -25.68262637827284 -130.32339123704443 67.7155956072762 -1.2788206533975909e-14 9.195678187564938e-16 2.2776856279236737e-15 -57.849109402766985 4.89247485414351e-15 1.5902773407317584e-15 -4.4139062980501586e-32 -3.1805546814635168e-15 -145.9238111910462 -8.597720147515384 154.92528841754034 -113.98083366956783 1.0668591323069936e-14 -6.930801431998232e-15 180.0 3.1102193883294724 -180.0 0.0 0.0 4.969616689786745e-17 -3.6138764557939598 1.213237120339642e-14 -1.5021374865590222e-17 0.0 0.0 0.0
38.15694741010666 -5.296100315451622 451.69305953979494 17.706111953273624 -61.205771477617155 18.335760251488665 -4.236629070350797 -17.809853483858262 -6.982852342521957 149.57536242121355 -21.518588838268016 78.27449719127881 -105.08836903917323 0.0 109.0036269851653 0.0 0.0 0.0 6.478188964523533 -17.09471032486945 22.596901253613716 -27.116084561254386 -12.535627344095378 -37.97130488227788 104.69500091094525 -9.54166404439055e-15 -79.01075799486922 0.0 0.0 0.0 1.495265227739879 -29.4133734035822 1.7315838531181267 0.0 0.0 0.0 0.0 0.0 0.0 0.0 0.0 0.0 0.0 0.0 0.0 90.21250131011051 -25.68262637827284 -130.32339123704443 67.7155956072762 -1.2788206533975909e-14 9.195678187564938e-16 2.2776856279236737e-15 -57.849109402766985 4.89247485414351e-15 1.5902773407317584e-15 -4.4139062980501586e-32 -3.1805546814635168e-15 -145.9238111910462 -8.597720147515384 154.92528841754034 -113.98083366956783 1.0668591323069936e-14 -6.930801431998232e-15 180.0 3.1102193883294724 -180.0 0.0 0.0 4.969616689786745e-17 -3.6138764557939598 1.213237120339642e-14 -1.5021374865590222e-17 0.0 0.0 0.0
38.15694741010666 -5.296100315451622 451.69305953979494 17.706111953273624 -61.205771477617155 18.335760251488665 -4.236629070350797 -17.809853483858262 -6.982852342521957 149.57536242121355 -21.518588838268016 78.27449719127881 -105.08836903917323 0.0 109.0036269851653 0.0 0.0 0.0 6.478188964523533 -17.09471032486945 22.596901253613716 -27.116084561254386 -12.535627344095378 -37.97130488227788 104.69500091094525 -9.54166404439055e-15 -79.01075799486922 0.0 0.0 0.0 1.495265227739879 -29.4133734035822 1.7315838531181267 0.0 0.0 0.0 0.0 0.0 0.0 0.0 0.0 0.0 0.0 0.0 0.0 90.21250131011051 -25.68262637827284 -130.32339123704443 67.7155956072762 -1.2788206533975909e-14 9.195678187564938e-16 2.2776856279236737e-15 -57.849109402766985 4.89247485414351e-15 1.5902773407317584e-15 -4.4139062980501586e-32 -3.1805546814635168e-15 -145.9238111910462 -8.597720147515384 154.92528841754034 -113.98083366956783 1.0668591323069936e-14 -6.930801431998232e-15 180.0 3.1102193883294724 -180.0 0.0 0.0 4.969616689786745e-17 -3.6138764557939598 1.213237120339642e-14 -1.5021374865590222e-17 0.0 0.0 0.0
38.13900396823883 -5.213967400789262 451.69806575775146 17.67383155710271 -61.02854235090918 18.367207677193832 -4.2085690967595255 -18.017277343373333 -7.044545663069693 150.75366883172433 -20.765665685264153 80.41628894778044 -106.75427868415389 1.2722218725854067e-14 108.05945799401137 3.1805546814635168e-15 1.7655625192200634e-31 6.3611093629270335e-15 6.443584002219844 -17.279564839874617 22.525052080763995 -27.283869349062428 -12.595189239980543 -37.970628992975314 104.79068438009243 9.54166404439055e-15 -79.15210665174827 0.0 0.0 1.5902773407317584e-15 1.4623962511578583 -29.596514607545583 1.7321365389756485 7.951386703658792e-16 0.0 0.0 7.951386703658792e-16 0.0 0.0 7.951386703658792e-16 0.0 0.0 7.951386703658792e-16 0.0 0.0 90.34209458627805 -25.758951199851477 -129.89373775144296 68.17043809073249 0.0 0.0 -1.437901582865303e-14 -58.06430238537991 -1.5256234148761114e-14 -1.5902773407317584e-15 0.0 0.0 -144.83725471586575 -6.082978400814745 154.7020352821241 -112.5581709782906 1.0581724934361053e-14 -7.062715251374183e-15 180.0 -0.17433871877039264 180.0 0.0 0.0 -1.1927080055488188e-15 -3.6990854561988344 9.028814703218954e-15 -9.017727721787857e-16 3.975693351829396e-16 0.0 0.0
38.13428553342819 -5.199771416187286 451.697292137146 17.677899133253067 -60.99520379843656 18.375396030391567 -4.2007361893806445 -18.058494941719395 -7.052208511118293 151.18155164348818 -20.500749332881163 81.72273185618833 -107.33709712901359 9.54166404439055e-15 107.55507842033735 0.0 0.0 0.0 6.442250614445892 -17.308878702066078 22.522896453455658 -27.350391392766046 -12.619806704989397 -37.96976311176129 104.80023122940183 0.0 -79.19546596658888 0.0 0.0 0.0 1.4577032839339152 -29.629475854901113 1.7412623899382376 0.0 0.0 0.0 0.0 0.0 0.0 0.0 0.0 0.0 0.0 0.0 0.0 90.33523810649007 -25.76311094203012 -129.86670284530396 68.19390709599402 1.3716476717318033e-14 6.07763657048247e-15 9.800809728076846e-15 -58.127337635954646 1.272441106052469e-14 -1.5902773407317584e-15 0.0 0.0 -144.4612240608847 -5.487366928860788 154.4998294744475 -112.11580610941252 2.7273892776310002e-14 -1.6439481835652233e-14 180.0 -4.8363962266261336 180.0 0.0 0.0 7.951386703658792e-16 -3.7981098981884944 1.1102508291963047e-14 -4.2745082624966653e-16 0.0 0.0 0.0
38.12806681394577 -5.184661638736725 451.69611682891843 17.694099223939734 -60.95736410104626 18.397983631990247 -4.189244999524157 -18.105642074883168 -7.063162369777703 150.56329379675 -20.85594231699198 80.98480447397522 -104.97040121594951 -6.3611093629270335e-15 107.12509045661848 0.0 0.0 0.0 6.439503859290397 -17.338354387453656 22.517614872034926 -27.423147450833486 -12.648302342546941 -37.95576432956119 104.82792614258335 3.1805546814635168e-15 -79.24000605386918 0.0 0.0 0.0 1.4499106688930967 -29.664691600001678 1.748953750427692 -7.951386703658792e-16 0.0 0.0 -7.951386703658792e-16 0.0 0.0 -7.951386703658792e-16 0.0 0.0 -7.951386703658792e-16 0.0 0.0 90.28570252376736 -25.781992431358905 -129.86379959714895 68.15484943052135 -6.5859838774121014e-15 4.4552628292379896e-15 -2.3051738866293382e-15 -58.160296769663745 -1.2819974101007575e-15 1.5902773407317584e-15 -4.4139062980501586e-32 -3.1805546814635168e-15 -144.14536197302758 -5.022408889599263 154.30080260409684 -111.73467841673184 -2.373836027964522e-14 1.0328140522458695e-14 -180.0 -7.582979865707048 -180.0 0.0 0.0 -4.969616689786745e-16 -3.8597937732740495 -1.5039895874052908e-14 6.866036091045705e-16 0.0 0.0 0.0
38.12052866220475 -5.16874906718731 451.69454727172854 17.721975817467946 -60.916523707308436 18.433640823809935 -4.174271616054066 -18.157136546078924 -7.076331793574195 150.11534485500943 -21.107045416951554 80.44919034953008 -103.92038885940129 -3.1805546814635168e-15 106.76190037003863 0.0 0.0 0.0 6.435872630668291 -17.366760906416097 22.50960531158176 -27.481441445487842 -12.672851476159515 -37.93376516524739 104.85506875801063 -6.3611093629270335e-15 -79.27158389746279 0.0 0.0 0.0 1.4398656078127396 -29.70137578356542 1.7565052731480653 -7.951386703658792e-16 4.969616689786745e-17 3.4483642953516864e-34 -7.951386703658792e-16 4.969616689786745e-17 3.4483642953516864e-34 -7.951386703658792e-16 4.969616689786745e-17 3.4483642953516864e-34 -7.951386703658792e-16 4.969616689786745e-17 3.4483642953516864e-34 90.21681535751726 -25.81626709878817 -129.8603599819377 68.07992673744387 -4.345909868655466e-15 1.0612263306036863e-14 -1.3950896239108003e-14 -58.21024914339977 -1.504702056452687e-14 0.0 0.0 0.0 -143.87795948872602 -4.651697995540703 154.11242165341483 -111.41401267164447 -1.1527354269737256e-14 -5.612836615196191e-15 -180.0 -9.349939225192843 -180.0 0.0 0.0 -2.4848083448933726e-15 -3.898121100708871 8.352437991483176e-16 -1.164974543754388e-15 -7.951386703658794e-16 -2.4848083448933725e-17 -3.975693351829397e-16
